<?xml version="1.0" encoding="utf-8" standalone="no"?>
<!DOCTYPE svg PUBLIC "-//W3C//DTD SVG 1.1//EN"
  "http://www.w3.org/Graphics/SVG/1.1/DTD/svg11.dtd">
<svg xmlns:xlink="http://www.w3.org/1999/xlink" width="576pt" height="432pt" viewBox="0 0 576 432" xmlns="http://www.w3.org/2000/svg" version="1.1">
 <metadata>
  <rdf:RDF xmlns:dc="http://purl.org/dc/elements/1.1/" xmlns:cc="http://creativecommons.org/ns#" xmlns:rdf="http://www.w3.org/1999/02/22-rdf-syntax-ns#">
   <cc:Work>
    <dc:type rdf:resource="http://purl.org/dc/dcmitype/StillImage"/>
    <dc:date>2025-04-04T19:08:12.031660</dc:date>
    <dc:format>image/svg+xml</dc:format>
    <dc:creator>
     <cc:Agent>
      <dc:title>Matplotlib v3.10.0, https://matplotlib.org/</dc:title>
     </cc:Agent>
    </dc:creator>
   </cc:Work>
  </rdf:RDF>
 </metadata>
 <defs>
  <style type="text/css">*{stroke-linejoin: round; stroke-linecap: butt}</style>
 </defs>
 <g id="figure_1">
  <g id="patch_1">
   <path d="M 0 432 
L 576 432 
L 576 0 
L 0 0 
z
" style="fill: #ffffff"/>
  </g>
  <g id="axes_1">
   <g id="patch_2">
    <path d="M 58.95 379.62 
L 563.04 379.62 
L 563.04 31.92 
L 58.95 31.92 
z
" style="fill: #ffffff"/>
   </g>
   <g id="matplotlib.axis_1">
    <g id="xtick_1">
     <g id="line2d_1">
      <path d="M 81.863182 379.62 
L 81.863182 31.92 
" clip-path="url(#p87ac417fb5)" style="fill: none; stroke: #cccccc; stroke-linecap: round"/>
     </g>
     <g id="text_1">
      <!-- 0.0 -->
      <g style="fill: #262626" transform="translate(72.133182 399.140938) scale(0.14 -0.14)">
       <defs>
        <path id="ArialMT-30" d="M 266 2259 
Q 266 3072 433 3567 
Q 600 4063 929 4331 
Q 1259 4600 1759 4600 
Q 2128 4600 2406 4451 
Q 2684 4303 2865 4023 
Q 3047 3744 3150 3342 
Q 3253 2941 3253 2259 
Q 3253 1453 3087 958 
Q 2922 463 2592 192 
Q 2263 -78 1759 -78 
Q 1097 -78 719 397 
Q 266 969 266 2259 
z
M 844 2259 
Q 844 1131 1108 757 
Q 1372 384 1759 384 
Q 2147 384 2411 759 
Q 2675 1134 2675 2259 
Q 2675 3391 2411 3762 
Q 2147 4134 1753 4134 
Q 1366 4134 1134 3806 
Q 844 3388 844 2259 
z
" transform="scale(0.015625)"/>
        <path id="ArialMT-2e" d="M 581 0 
L 581 641 
L 1222 641 
L 1222 0 
L 581 0 
z
" transform="scale(0.015625)"/>
       </defs>
       <use xlink:href="#ArialMT-30"/>
       <use xlink:href="#ArialMT-2e" transform="translate(55.615234 0)"/>
       <use xlink:href="#ArialMT-30" transform="translate(83.398438 0)"/>
      </g>
     </g>
    </g>
    <g id="xtick_2">
     <g id="line2d_2">
      <path d="M 173.515909 379.62 
L 173.515909 31.92 
" clip-path="url(#p87ac417fb5)" style="fill: none; stroke: #cccccc; stroke-linecap: round"/>
     </g>
     <g id="text_2">
      <!-- 0.2 -->
      <g style="fill: #262626" transform="translate(163.785909 399.140938) scale(0.14 -0.14)">
       <defs>
        <path id="ArialMT-32" d="M 3222 541 
L 3222 0 
L 194 0 
Q 188 203 259 391 
Q 375 700 629 1000 
Q 884 1300 1366 1694 
Q 2113 2306 2375 2664 
Q 2638 3022 2638 3341 
Q 2638 3675 2398 3904 
Q 2159 4134 1775 4134 
Q 1369 4134 1125 3890 
Q 881 3647 878 3216 
L 300 3275 
Q 359 3922 746 4261 
Q 1134 4600 1788 4600 
Q 2447 4600 2831 4234 
Q 3216 3869 3216 3328 
Q 3216 3053 3103 2787 
Q 2991 2522 2730 2228 
Q 2469 1934 1863 1422 
Q 1356 997 1212 845 
Q 1069 694 975 541 
L 3222 541 
z
" transform="scale(0.015625)"/>
       </defs>
       <use xlink:href="#ArialMT-30"/>
       <use xlink:href="#ArialMT-2e" transform="translate(55.615234 0)"/>
       <use xlink:href="#ArialMT-32" transform="translate(83.398438 0)"/>
      </g>
     </g>
    </g>
    <g id="xtick_3">
     <g id="line2d_3">
      <path d="M 265.168636 379.62 
L 265.168636 31.92 
" clip-path="url(#p87ac417fb5)" style="fill: none; stroke: #cccccc; stroke-linecap: round"/>
     </g>
     <g id="text_3">
      <!-- 0.4 -->
      <g style="fill: #262626" transform="translate(255.438636 399.140938) scale(0.14 -0.14)">
       <defs>
        <path id="ArialMT-34" d="M 2069 0 
L 2069 1097 
L 81 1097 
L 81 1613 
L 2172 4581 
L 2631 4581 
L 2631 1613 
L 3250 1613 
L 3250 1097 
L 2631 1097 
L 2631 0 
L 2069 0 
z
M 2069 1613 
L 2069 3678 
L 634 1613 
L 2069 1613 
z
" transform="scale(0.015625)"/>
       </defs>
       <use xlink:href="#ArialMT-30"/>
       <use xlink:href="#ArialMT-2e" transform="translate(55.615234 0)"/>
       <use xlink:href="#ArialMT-34" transform="translate(83.398438 0)"/>
      </g>
     </g>
    </g>
    <g id="xtick_4">
     <g id="line2d_4">
      <path d="M 356.821364 379.62 
L 356.821364 31.92 
" clip-path="url(#p87ac417fb5)" style="fill: none; stroke: #cccccc; stroke-linecap: round"/>
     </g>
     <g id="text_4">
      <!-- 0.6 -->
      <g style="fill: #262626" transform="translate(347.091364 399.140938) scale(0.14 -0.14)">
       <defs>
        <path id="ArialMT-36" d="M 3184 3459 
L 2625 3416 
Q 2550 3747 2413 3897 
Q 2184 4138 1850 4138 
Q 1581 4138 1378 3988 
Q 1113 3794 959 3422 
Q 806 3050 800 2363 
Q 1003 2672 1297 2822 
Q 1591 2972 1913 2972 
Q 2475 2972 2870 2558 
Q 3266 2144 3266 1488 
Q 3266 1056 3080 686 
Q 2894 316 2569 119 
Q 2244 -78 1831 -78 
Q 1128 -78 684 439 
Q 241 956 241 2144 
Q 241 3472 731 4075 
Q 1159 4600 1884 4600 
Q 2425 4600 2770 4297 
Q 3116 3994 3184 3459 
z
M 888 1484 
Q 888 1194 1011 928 
Q 1134 663 1356 523 
Q 1578 384 1822 384 
Q 2178 384 2434 671 
Q 2691 959 2691 1453 
Q 2691 1928 2437 2201 
Q 2184 2475 1800 2475 
Q 1419 2475 1153 2201 
Q 888 1928 888 1484 
z
" transform="scale(0.015625)"/>
       </defs>
       <use xlink:href="#ArialMT-30"/>
       <use xlink:href="#ArialMT-2e" transform="translate(55.615234 0)"/>
       <use xlink:href="#ArialMT-36" transform="translate(83.398438 0)"/>
      </g>
     </g>
    </g>
    <g id="xtick_5">
     <g id="line2d_5">
      <path d="M 448.474091 379.62 
L 448.474091 31.92 
" clip-path="url(#p87ac417fb5)" style="fill: none; stroke: #cccccc; stroke-linecap: round"/>
     </g>
     <g id="text_5">
      <!-- 0.8 -->
      <g style="fill: #262626" transform="translate(438.744091 399.140938) scale(0.14 -0.14)">
       <defs>
        <path id="ArialMT-38" d="M 1131 2484 
Q 781 2613 612 2850 
Q 444 3088 444 3419 
Q 444 3919 803 4259 
Q 1163 4600 1759 4600 
Q 2359 4600 2725 4251 
Q 3091 3903 3091 3403 
Q 3091 3084 2923 2848 
Q 2756 2613 2416 2484 
Q 2838 2347 3058 2040 
Q 3278 1734 3278 1309 
Q 3278 722 2862 322 
Q 2447 -78 1769 -78 
Q 1091 -78 675 323 
Q 259 725 259 1325 
Q 259 1772 486 2073 
Q 713 2375 1131 2484 
z
M 1019 3438 
Q 1019 3113 1228 2906 
Q 1438 2700 1772 2700 
Q 2097 2700 2305 2904 
Q 2513 3109 2513 3406 
Q 2513 3716 2298 3927 
Q 2084 4138 1766 4138 
Q 1444 4138 1231 3931 
Q 1019 3725 1019 3438 
z
M 838 1322 
Q 838 1081 952 856 
Q 1066 631 1291 507 
Q 1516 384 1775 384 
Q 2178 384 2440 643 
Q 2703 903 2703 1303 
Q 2703 1709 2433 1975 
Q 2163 2241 1756 2241 
Q 1359 2241 1098 1978 
Q 838 1716 838 1322 
z
" transform="scale(0.015625)"/>
       </defs>
       <use xlink:href="#ArialMT-30"/>
       <use xlink:href="#ArialMT-2e" transform="translate(55.615234 0)"/>
       <use xlink:href="#ArialMT-38" transform="translate(83.398438 0)"/>
      </g>
     </g>
    </g>
    <g id="xtick_6">
     <g id="line2d_6">
      <path d="M 540.126818 379.62 
L 540.126818 31.92 
" clip-path="url(#p87ac417fb5)" style="fill: none; stroke: #cccccc; stroke-linecap: round"/>
     </g>
     <g id="text_6">
      <!-- 1.0 -->
      <g style="fill: #262626" transform="translate(530.396818 399.140938) scale(0.14 -0.14)">
       <defs>
        <path id="ArialMT-31" d="M 2384 0 
L 1822 0 
L 1822 3584 
Q 1619 3391 1289 3197 
Q 959 3003 697 2906 
L 697 3450 
Q 1169 3672 1522 3987 
Q 1875 4303 2022 4600 
L 2384 4600 
L 2384 0 
z
" transform="scale(0.015625)"/>
       </defs>
       <use xlink:href="#ArialMT-31"/>
       <use xlink:href="#ArialMT-2e" transform="translate(55.615234 0)"/>
       <use xlink:href="#ArialMT-30" transform="translate(83.398438 0)"/>
      </g>
     </g>
    </g>
    <g id="text_7">
     <!-- False Positive Rate -->
     <g style="fill: #262626" transform="translate(250.694375 415.944375) scale(0.14 -0.14)">
      <defs>
       <path id="ArialMT-46" d="M 525 0 
L 525 4581 
L 3616 4581 
L 3616 4041 
L 1131 4041 
L 1131 2622 
L 3281 2622 
L 3281 2081 
L 1131 2081 
L 1131 0 
L 525 0 
z
" transform="scale(0.015625)"/>
       <path id="ArialMT-61" d="M 2588 409 
Q 2275 144 1986 34 
Q 1697 -75 1366 -75 
Q 819 -75 525 192 
Q 231 459 231 875 
Q 231 1119 342 1320 
Q 453 1522 633 1644 
Q 813 1766 1038 1828 
Q 1203 1872 1538 1913 
Q 2219 1994 2541 2106 
Q 2544 2222 2544 2253 
Q 2544 2597 2384 2738 
Q 2169 2928 1744 2928 
Q 1347 2928 1158 2789 
Q 969 2650 878 2297 
L 328 2372 
Q 403 2725 575 2942 
Q 747 3159 1072 3276 
Q 1397 3394 1825 3394 
Q 2250 3394 2515 3294 
Q 2781 3194 2906 3042 
Q 3031 2891 3081 2659 
Q 3109 2516 3109 2141 
L 3109 1391 
Q 3109 606 3145 398 
Q 3181 191 3288 0 
L 2700 0 
Q 2613 175 2588 409 
z
M 2541 1666 
Q 2234 1541 1622 1453 
Q 1275 1403 1131 1340 
Q 988 1278 909 1158 
Q 831 1038 831 891 
Q 831 666 1001 516 
Q 1172 366 1500 366 
Q 1825 366 2078 508 
Q 2331 650 2450 897 
Q 2541 1088 2541 1459 
L 2541 1666 
z
" transform="scale(0.015625)"/>
       <path id="ArialMT-6c" d="M 409 0 
L 409 4581 
L 972 4581 
L 972 0 
L 409 0 
z
" transform="scale(0.015625)"/>
       <path id="ArialMT-73" d="M 197 991 
L 753 1078 
Q 800 744 1014 566 
Q 1228 388 1613 388 
Q 2000 388 2187 545 
Q 2375 703 2375 916 
Q 2375 1106 2209 1216 
Q 2094 1291 1634 1406 
Q 1016 1563 777 1677 
Q 538 1791 414 1992 
Q 291 2194 291 2438 
Q 291 2659 392 2848 
Q 494 3038 669 3163 
Q 800 3259 1026 3326 
Q 1253 3394 1513 3394 
Q 1903 3394 2198 3281 
Q 2494 3169 2634 2976 
Q 2775 2784 2828 2463 
L 2278 2388 
Q 2241 2644 2061 2787 
Q 1881 2931 1553 2931 
Q 1166 2931 1000 2803 
Q 834 2675 834 2503 
Q 834 2394 903 2306 
Q 972 2216 1119 2156 
Q 1203 2125 1616 2013 
Q 2213 1853 2448 1751 
Q 2684 1650 2818 1456 
Q 2953 1263 2953 975 
Q 2953 694 2789 445 
Q 2625 197 2315 61 
Q 2006 -75 1616 -75 
Q 969 -75 630 194 
Q 291 463 197 991 
z
" transform="scale(0.015625)"/>
       <path id="ArialMT-65" d="M 2694 1069 
L 3275 997 
Q 3138 488 2766 206 
Q 2394 -75 1816 -75 
Q 1088 -75 661 373 
Q 234 822 234 1631 
Q 234 2469 665 2931 
Q 1097 3394 1784 3394 
Q 2450 3394 2872 2941 
Q 3294 2488 3294 1666 
Q 3294 1616 3291 1516 
L 816 1516 
Q 847 969 1125 678 
Q 1403 388 1819 388 
Q 2128 388 2347 550 
Q 2566 713 2694 1069 
z
M 847 1978 
L 2700 1978 
Q 2663 2397 2488 2606 
Q 2219 2931 1791 2931 
Q 1403 2931 1139 2672 
Q 875 2413 847 1978 
z
" transform="scale(0.015625)"/>
       <path id="ArialMT-20" transform="scale(0.015625)"/>
       <path id="ArialMT-50" d="M 494 0 
L 494 4581 
L 2222 4581 
Q 2678 4581 2919 4538 
Q 3256 4481 3484 4323 
Q 3713 4166 3852 3881 
Q 3991 3597 3991 3256 
Q 3991 2672 3619 2267 
Q 3247 1863 2275 1863 
L 1100 1863 
L 1100 0 
L 494 0 
z
M 1100 2403 
L 2284 2403 
Q 2872 2403 3119 2622 
Q 3366 2841 3366 3238 
Q 3366 3525 3220 3729 
Q 3075 3934 2838 4000 
Q 2684 4041 2272 4041 
L 1100 4041 
L 1100 2403 
z
" transform="scale(0.015625)"/>
       <path id="ArialMT-6f" d="M 213 1659 
Q 213 2581 725 3025 
Q 1153 3394 1769 3394 
Q 2453 3394 2887 2945 
Q 3322 2497 3322 1706 
Q 3322 1066 3130 698 
Q 2938 331 2570 128 
Q 2203 -75 1769 -75 
Q 1072 -75 642 372 
Q 213 819 213 1659 
z
M 791 1659 
Q 791 1022 1069 705 
Q 1347 388 1769 388 
Q 2188 388 2466 706 
Q 2744 1025 2744 1678 
Q 2744 2294 2464 2611 
Q 2184 2928 1769 2928 
Q 1347 2928 1069 2612 
Q 791 2297 791 1659 
z
" transform="scale(0.015625)"/>
       <path id="ArialMT-69" d="M 425 3934 
L 425 4581 
L 988 4581 
L 988 3934 
L 425 3934 
z
M 425 0 
L 425 3319 
L 988 3319 
L 988 0 
L 425 0 
z
" transform="scale(0.015625)"/>
       <path id="ArialMT-74" d="M 1650 503 
L 1731 6 
Q 1494 -44 1306 -44 
Q 1000 -44 831 53 
Q 663 150 594 308 
Q 525 466 525 972 
L 525 2881 
L 113 2881 
L 113 3319 
L 525 3319 
L 525 4141 
L 1084 4478 
L 1084 3319 
L 1650 3319 
L 1650 2881 
L 1084 2881 
L 1084 941 
Q 1084 700 1114 631 
Q 1144 563 1211 522 
Q 1278 481 1403 481 
Q 1497 481 1650 503 
z
" transform="scale(0.015625)"/>
       <path id="ArialMT-76" d="M 1344 0 
L 81 3319 
L 675 3319 
L 1388 1331 
Q 1503 1009 1600 663 
Q 1675 925 1809 1294 
L 2547 3319 
L 3125 3319 
L 1869 0 
L 1344 0 
z
" transform="scale(0.015625)"/>
       <path id="ArialMT-52" d="M 503 0 
L 503 4581 
L 2534 4581 
Q 3147 4581 3465 4457 
Q 3784 4334 3975 4021 
Q 4166 3709 4166 3331 
Q 4166 2844 3850 2509 
Q 3534 2175 2875 2084 
Q 3116 1969 3241 1856 
Q 3506 1613 3744 1247 
L 4541 0 
L 3778 0 
L 3172 953 
Q 2906 1366 2734 1584 
Q 2563 1803 2427 1890 
Q 2291 1978 2150 2013 
Q 2047 2034 1813 2034 
L 1109 2034 
L 1109 0 
L 503 0 
z
M 1109 2559 
L 2413 2559 
Q 2828 2559 3062 2645 
Q 3297 2731 3419 2920 
Q 3541 3109 3541 3331 
Q 3541 3656 3305 3865 
Q 3069 4075 2559 4075 
L 1109 4075 
L 1109 2559 
z
" transform="scale(0.015625)"/>
      </defs>
      <use xlink:href="#ArialMT-46"/>
      <use xlink:href="#ArialMT-61" transform="translate(61.083984 0)"/>
      <use xlink:href="#ArialMT-6c" transform="translate(116.699219 0)"/>
      <use xlink:href="#ArialMT-73" transform="translate(138.916016 0)"/>
      <use xlink:href="#ArialMT-65" transform="translate(188.916016 0)"/>
      <use xlink:href="#ArialMT-20" transform="translate(244.53125 0)"/>
      <use xlink:href="#ArialMT-50" transform="translate(272.314453 0)"/>
      <use xlink:href="#ArialMT-6f" transform="translate(339.013672 0)"/>
      <use xlink:href="#ArialMT-73" transform="translate(394.628906 0)"/>
      <use xlink:href="#ArialMT-69" transform="translate(444.628906 0)"/>
      <use xlink:href="#ArialMT-74" transform="translate(466.845703 0)"/>
      <use xlink:href="#ArialMT-69" transform="translate(494.628906 0)"/>
      <use xlink:href="#ArialMT-76" transform="translate(516.845703 0)"/>
      <use xlink:href="#ArialMT-65" transform="translate(566.845703 0)"/>
      <use xlink:href="#ArialMT-20" transform="translate(622.460938 0)"/>
      <use xlink:href="#ArialMT-52" transform="translate(650.244141 0)"/>
      <use xlink:href="#ArialMT-61" transform="translate(722.460938 0)"/>
      <use xlink:href="#ArialMT-74" transform="translate(778.076172 0)"/>
      <use xlink:href="#ArialMT-65" transform="translate(805.859375 0)"/>
     </g>
    </g>
   </g>
   <g id="matplotlib.axis_2">
    <g id="ytick_1">
     <g id="line2d_7">
      <path d="M 58.95 363.815455 
L 563.04 363.815455 
" clip-path="url(#p87ac417fb5)" style="fill: none; stroke: #cccccc; stroke-linecap: round"/>
     </g>
     <g id="text_8">
      <!-- 0.0 -->
      <g style="fill: #262626" transform="translate(29.99 368.825923) scale(0.14 -0.14)">
       <use xlink:href="#ArialMT-30"/>
       <use xlink:href="#ArialMT-2e" transform="translate(55.615234 0)"/>
       <use xlink:href="#ArialMT-30" transform="translate(83.398438 0)"/>
      </g>
     </g>
    </g>
    <g id="ytick_2">
     <g id="line2d_8">
      <path d="M 58.95 300.597273 
L 563.04 300.597273 
" clip-path="url(#p87ac417fb5)" style="fill: none; stroke: #cccccc; stroke-linecap: round"/>
     </g>
     <g id="text_9">
      <!-- 0.2 -->
      <g style="fill: #262626" transform="translate(29.99 305.607741) scale(0.14 -0.14)">
       <use xlink:href="#ArialMT-30"/>
       <use xlink:href="#ArialMT-2e" transform="translate(55.615234 0)"/>
       <use xlink:href="#ArialMT-32" transform="translate(83.398438 0)"/>
      </g>
     </g>
    </g>
    <g id="ytick_3">
     <g id="line2d_9">
      <path d="M 58.95 237.379091 
L 563.04 237.379091 
" clip-path="url(#p87ac417fb5)" style="fill: none; stroke: #cccccc; stroke-linecap: round"/>
     </g>
     <g id="text_10">
      <!-- 0.4 -->
      <g style="fill: #262626" transform="translate(29.99 242.38956) scale(0.14 -0.14)">
       <use xlink:href="#ArialMT-30"/>
       <use xlink:href="#ArialMT-2e" transform="translate(55.615234 0)"/>
       <use xlink:href="#ArialMT-34" transform="translate(83.398438 0)"/>
      </g>
     </g>
    </g>
    <g id="ytick_4">
     <g id="line2d_10">
      <path d="M 58.95 174.160909 
L 563.04 174.160909 
" clip-path="url(#p87ac417fb5)" style="fill: none; stroke: #cccccc; stroke-linecap: round"/>
     </g>
     <g id="text_11">
      <!-- 0.6 -->
      <g style="fill: #262626" transform="translate(29.99 179.171378) scale(0.14 -0.14)">
       <use xlink:href="#ArialMT-30"/>
       <use xlink:href="#ArialMT-2e" transform="translate(55.615234 0)"/>
       <use xlink:href="#ArialMT-36" transform="translate(83.398438 0)"/>
      </g>
     </g>
    </g>
    <g id="ytick_5">
     <g id="line2d_11">
      <path d="M 58.95 110.942727 
L 563.04 110.942727 
" clip-path="url(#p87ac417fb5)" style="fill: none; stroke: #cccccc; stroke-linecap: round"/>
     </g>
     <g id="text_12">
      <!-- 0.8 -->
      <g style="fill: #262626" transform="translate(29.99 115.953196) scale(0.14 -0.14)">
       <use xlink:href="#ArialMT-30"/>
       <use xlink:href="#ArialMT-2e" transform="translate(55.615234 0)"/>
       <use xlink:href="#ArialMT-38" transform="translate(83.398438 0)"/>
      </g>
     </g>
    </g>
    <g id="ytick_6">
     <g id="line2d_12">
      <path d="M 58.95 47.724545 
L 563.04 47.724545 
" clip-path="url(#p87ac417fb5)" style="fill: none; stroke: #cccccc; stroke-linecap: round"/>
     </g>
     <g id="text_13">
      <!-- 1.0 -->
      <g style="fill: #262626" transform="translate(29.99 52.735014) scale(0.14 -0.14)">
       <use xlink:href="#ArialMT-31"/>
       <use xlink:href="#ArialMT-2e" transform="translate(55.615234 0)"/>
       <use xlink:href="#ArialMT-30" transform="translate(83.398438 0)"/>
      </g>
     </g>
    </g>
    <g id="text_14">
     <!-- True Positive Rate -->
     <g style="fill: #262626" transform="translate(23.2075 263.083594) rotate(-90) scale(0.14 -0.14)">
      <defs>
       <path id="ArialMT-54" d="M 1659 0 
L 1659 4041 
L 150 4041 
L 150 4581 
L 3781 4581 
L 3781 4041 
L 2266 4041 
L 2266 0 
L 1659 0 
z
" transform="scale(0.015625)"/>
       <path id="ArialMT-72" d="M 416 0 
L 416 3319 
L 922 3319 
L 922 2816 
Q 1116 3169 1280 3281 
Q 1444 3394 1641 3394 
Q 1925 3394 2219 3213 
L 2025 2691 
Q 1819 2813 1613 2813 
Q 1428 2813 1281 2702 
Q 1134 2591 1072 2394 
Q 978 2094 978 1738 
L 978 0 
L 416 0 
z
" transform="scale(0.015625)"/>
       <path id="ArialMT-75" d="M 2597 0 
L 2597 488 
Q 2209 -75 1544 -75 
Q 1250 -75 995 37 
Q 741 150 617 320 
Q 494 491 444 738 
Q 409 903 409 1263 
L 409 3319 
L 972 3319 
L 972 1478 
Q 972 1038 1006 884 
Q 1059 663 1231 536 
Q 1403 409 1656 409 
Q 1909 409 2131 539 
Q 2353 669 2445 892 
Q 2538 1116 2538 1541 
L 2538 3319 
L 3100 3319 
L 3100 0 
L 2597 0 
z
" transform="scale(0.015625)"/>
      </defs>
      <use xlink:href="#ArialMT-54"/>
      <use xlink:href="#ArialMT-72" transform="translate(57.333984 0)"/>
      <use xlink:href="#ArialMT-75" transform="translate(90.634766 0)"/>
      <use xlink:href="#ArialMT-65" transform="translate(146.25 0)"/>
      <use xlink:href="#ArialMT-20" transform="translate(201.865234 0)"/>
      <use xlink:href="#ArialMT-50" transform="translate(229.648438 0)"/>
      <use xlink:href="#ArialMT-6f" transform="translate(296.347656 0)"/>
      <use xlink:href="#ArialMT-73" transform="translate(351.962891 0)"/>
      <use xlink:href="#ArialMT-69" transform="translate(401.962891 0)"/>
      <use xlink:href="#ArialMT-74" transform="translate(424.179688 0)"/>
      <use xlink:href="#ArialMT-69" transform="translate(451.962891 0)"/>
      <use xlink:href="#ArialMT-76" transform="translate(474.179688 0)"/>
      <use xlink:href="#ArialMT-65" transform="translate(524.179688 0)"/>
      <use xlink:href="#ArialMT-20" transform="translate(579.794922 0)"/>
      <use xlink:href="#ArialMT-52" transform="translate(607.578125 0)"/>
      <use xlink:href="#ArialMT-61" transform="translate(679.794922 0)"/>
      <use xlink:href="#ArialMT-74" transform="translate(735.410156 0)"/>
      <use xlink:href="#ArialMT-65" transform="translate(763.193359 0)"/>
     </g>
    </g>
   </g>
   <g id="line2d_13">
    <path d="M 81.863182 363.815455 
L 81.864186 363.815455 
L 81.864186 363.726059 
L 81.974642 337.327401 
L 81.977654 337.066838 
L 82.08811 320.496819 
L 82.090119 320.481573 
L 82.090119 320.38802 
L 82.200575 302.754265 
L 82.201579 302.754265 
L 82.201579 302.645466 
L 82.312035 288.669298 
L 82.313039 288.669298 
L 82.313039 288.559113 
L 82.423495 274.700753 
L 82.426507 274.634919 
L 82.426507 274.590568 
L 82.536963 260.536093 
L 82.537967 260.345521 
L 82.648423 250.211968 
L 82.651436 250.018625 
L 82.761892 239.803299 
L 82.7639 239.670246 
L 82.874356 230.252548 
L 82.877368 230.059898 
L 82.987824 220.167504 
L 82.989832 220.033758 
L 83.100288 210.784456 
L 83.101293 210.649324 
L 83.211748 203.041709 
L 83.214761 202.949542 
L 83.214761 202.931524 
L 83.325217 195.75772 
L 83.327225 195.667631 
L 83.327225 195.648921 
L 83.437681 188.874277 
L 83.446718 188.798048 
L 83.446718 188.766864 
L 83.557174 182.645707 
L 83.559183 182.510574 
L 83.669639 176.573059 
L 83.673655 176.518313 
L 83.673655 176.462181 
L 83.784111 171.469901 
L 83.785115 171.469901 
L 83.785115 171.359023 
L 83.895571 167.095072 
L 83.899588 167.018843 
L 83.899588 166.984887 
L 84.010044 162.551847 
L 84.01406 162.421566 
L 84.124516 158.314923 
L 84.127529 158.205431 
L 84.237985 154.861767 
L 84.240997 154.754354 
L 84.240997 154.750889 
L 84.351453 151.197943 
L 84.352457 151.197943 
L 84.352457 151.103004 
L 84.462913 148.159887 
L 84.464921 148.109299 
L 84.464921 148.065641 
L 84.575377 144.647135 
L 84.57839 144.543879 
L 84.57839 144.536257 
L 84.688846 142.148915 
L 84.692862 142.123275 
L 84.692862 142.047046 
L 84.803318 139.657626 
L 84.810347 139.464976 
L 84.919799 136.96537 
L 84.926828 136.85865 
L 85.037284 134.055517 
L 85.046321 133.96127 
L 85.046321 133.95642 
L 85.156777 131.34455 
L 85.162802 131.284954 
L 85.162802 131.23783 
L 85.273258 129.420818 
L 85.282295 129.314791 
L 85.392751 127.506787 
L 85.403797 127.398681 
L 85.514253 125.779169 
L 85.521282 125.694625 
L 85.521282 125.668292 
L 85.631738 124.070263 
L 85.642783 123.974631 
L 85.642783 123.964236 
L 85.752235 122.161083 
L 85.753239 122.161083 
L 85.760268 122.023178 
L 85.870724 120.25814 
L 85.882774 120.156271 
L 85.99323 118.784156 
L 86.009296 118.676743 
L 86.119752 117.543015 
L 86.13381 117.440453 
L 86.13381 117.433523 
L 86.244266 116.313656 
L 86.25732 116.170208 
L 86.366772 114.961638 
L 86.367776 114.961638 
L 86.379826 114.818882 
L 86.490282 113.68862 
L 86.506348 113.584672 
L 86.616804 112.522323 
L 86.629858 112.425997 
L 86.740314 111.429482 
L 86.751359 111.346323 
L 86.751359 111.344937 
L 86.861815 110.377527 
L 86.871857 110.269421 
L 86.982313 109.311712 
L 86.999383 109.205685 
L 87.109839 108.230652 
L 87.127914 108.122546 
L 87.23837 107.41362 
L 87.261465 107.304821 
L 87.371921 106.567483 
L 87.384975 106.457298 
L 87.495431 105.674915 
L 87.511497 105.565423 
L 87.621953 104.775418 
L 87.639024 104.686715 
L 87.749479 103.981254 
L 87.765546 103.871069 
L 87.876002 103.023546 
L 87.900101 102.91544 
L 88.010557 102.221759 
L 88.029636 102.111574 
L 88.140092 101.379087 
L 88.157162 101.293849 
L 88.157162 101.272367 
L 88.266614 100.591853 
L 88.293726 100.483054 
L 88.404182 99.914112 
L 88.417236 99.803234 
L 88.527692 99.266169 
L 88.556812 99.155291 
L 88.667268 98.573874 
L 88.693376 98.465768 
L 88.803832 97.828913 
L 88.824919 97.722886 
L 88.824919 97.720114 
L 88.935375 97.122066 
L 88.957466 97.011188 
L 89.067922 96.465807 
L 89.092021 96.356315 
L 89.202477 95.884391 
L 89.226577 95.773513 
L 89.337033 95.287035 
L 89.372178 95.180315 
L 89.372178 95.178929 
L 89.482634 94.692452 
L 89.507737 94.581574 
L 89.617189 94.043123 
L 89.618193 94.043123 
L 89.65133 93.888587 
L 89.759778 93.393101 
L 89.794923 93.284302 
L 89.904375 92.906624 
L 89.933495 92.798518 
L 89.933495 92.796439 
L 90.043951 92.355006 
L 90.073071 92.258681 
L 90.183527 91.779134 
L 90.206622 91.675879 
L 90.317078 91.229595 
L 90.351219 91.120796 
L 90.461675 90.694609 
L 90.490795 90.586503 
L 90.601251 90.200509 
L 90.6374 90.089631 
L 90.746852 89.759076 
L 90.775972 89.652356 
L 90.775972 89.648198 
L 90.825175 89.481188 
L 90.935631 89.136773 
L 90.968768 89.025895 
L 91.079224 88.687024 
L 91.113365 88.578225 
L 91.223821 88.18253 
L 91.262983 88.081354 
L 91.373439 87.711991 
L 91.408584 87.601113 
L 91.51904 87.257392 
L 91.556193 87.148593 
L 91.666649 86.826354 
L 91.707819 86.716862 
L 91.818275 86.398087 
L 91.854424 86.287209 
L 91.96488 85.975365 
L 92.002033 85.867952 
L 92.112489 85.559573 
L 92.161692 85.451467 
L 92.272148 85.077947 
L 92.312314 84.975385 
L 92.42277 84.661461 
L 92.467957 84.550583 
L 92.578413 84.254678 
L 92.615566 84.148651 
L 92.726022 83.873535 
L 92.765183 83.762657 
L 92.875639 83.526348 
L 92.92183 83.41547 
L 93.030278 83.142433 
L 93.081489 83.034327 
L 93.191945 82.748816 
L 93.243156 82.64071 
L 93.353612 82.337182 
L 93.394782 82.226997 
L 93.505238 81.951881 
L 93.547412 81.842389 
L 93.657868 81.59915 
L 93.702051 81.490351 
L 93.812507 81.248499 
L 93.868739 81.137621 
L 93.975178 80.913093 
L 94.03141 80.807066 
L 94.141866 80.563134 
L 94.204123 80.452256 
L 94.314579 80.240202 
L 94.369807 80.129324 
L 94.478255 79.902025 
L 94.528462 79.791147 
L 94.638918 79.547908 
L 94.69515 79.43703 
L 94.802594 79.241608 
L 94.873888 79.13073 
L 94.984344 78.915904 
L 95.049613 78.809877 
L 95.160069 78.56941 
L 95.217305 78.458532 
L 95.327761 78.297759 
L 95.399056 78.188267 
L 95.509512 77.994231 
L 95.561727 77.884046 
L 95.672183 77.710799 
L 95.745486 77.600614 
L 95.852929 77.432911 
L 95.917194 77.324805 
L 96.02765 77.130768 
L 96.088903 77.021276 
L 96.199359 76.855652 
L 96.252579 76.748239 
L 96.363035 76.545887 
L 96.432321 76.437088 
L 96.542777 76.254139 
L 96.632146 76.143261 
L 96.741597 76.000506 
L 96.796825 75.8924 
L 96.906277 75.731627 
L 96.973555 75.626986 
L 96.973555 75.620749 
L 97.082003 75.410081 
L 97.157313 75.303361 
L 97.267769 75.143281 
L 97.358142 75.032403 
L 97.468598 74.853612 
L 97.554955 74.74412 
L 97.664407 74.575724 
L 97.726664 74.466232 
L 97.83712 74.283284 
L 97.914439 74.175871 
L 98.020878 74.026185 
L 98.103218 73.916693 
L 98.211666 73.764929 
L 98.283964 73.65613 
L 98.39442 73.510603 
L 98.478768 73.400418 
L 98.589224 73.253504 
L 98.693655 73.142626 
L 98.804111 73.025512 
L 98.895488 72.914634 
L 99.005944 72.807914 
L 99.101338 72.697036 
L 99.211794 72.557745 
L 99.294134 72.446867 
L 99.40459 72.30134 
L 99.481909 72.195313 
L 99.592365 72.066417 
L 99.686755 71.955539 
L 99.797211 71.825258 
L 99.900637 71.715073 
L 100.011093 71.574396 
L 100.108495 71.46629 
L 100.217947 71.336702 
L 100.324387 71.225824 
L 100.433838 71.107323 
L 100.559357 70.997831 
L 100.669812 70.888339 
L 100.774244 70.780926 
L 100.883695 70.661732 
L 100.978085 70.55224 
L 101.088541 70.439976 
L 101.191968 70.329098 
L 101.302424 70.227922 
L 101.414888 70.117044 
L 101.52434 70.031806 
L 101.66492 69.920929 
L 101.774372 69.807972 
L 101.875791 69.697787 
L 101.985242 69.582058 
L 102.087665 69.472566 
L 102.087665 69.47118 
L 102.197117 69.378319 
L 102.317614 69.267442 
L 102.42807 69.178739 
L 102.535514 69.06994 
L 102.64597 68.981238 
L 102.771488 68.871746 
L 102.878931 68.774035 
L 103.03859 68.66385 
L 103.146034 68.545349 
L 103.301676 68.434471 
L 103.410124 68.331216 
L 103.527609 68.221031 
L 103.638065 68.124012 
L 103.768604 68.013827 
L 103.877051 67.919581 
L 104.028677 67.808703 
L 104.139133 67.704755 
L 104.301805 67.593877 
L 104.412261 67.51557 
L 104.546816 67.404692 
L 104.656268 67.300051 
L 104.817935 67.190559 
L 104.928391 67.096312 
L 105.082025 66.986127 
L 105.190473 66.902276 
L 105.348124 66.793477 
L 105.45858 66.692994 
L 105.622255 66.582809 
L 105.732711 66.497571 
L 105.906428 66.388772 
L 106.01588 66.29314 
L 106.134369 66.182955 
L 106.244825 66.092174 
L 106.402476 65.986147 
L 106.512932 65.907839 
L 106.676608 65.796961 
L 106.787063 65.705487 
L 106.922623 65.594609 
L 107.033079 65.528082 
L 107.187717 65.417897 
L 107.298173 65.331274 
L 107.448795 65.220396 
L 107.559251 65.155255 
L 107.716902 65.044377 
L 107.827358 64.967455 
L 108.008104 64.856577 
L 108.11856 64.784507 
L 108.32943 64.674322 
L 108.439886 64.592549 
L 108.600549 64.482364 
L 108.711005 64.414451 
L 108.895768 64.304266 
L 109.003211 64.227345 
L 109.213078 64.11716 
L 109.322529 64.072809 
L 109.497251 63.962624 
L 109.602686 63.907878 
L 109.833639 63.797 
L 109.942087 63.732552 
L 110.178061 63.621674 
L 110.288517 63.561384 
L 110.479304 63.451199 
L 110.58976 63.379821 
L 110.80766 63.268943 
L 110.915103 63.216276 
L 111.141036 63.105398 
L 111.249484 63.063126 
L 111.461358 62.952941 
L 111.57081 62.882257 
L 111.807788 62.771379 
L 111.916236 62.722869 
L 112.112044 62.612685 
L 112.219488 62.566254 
L 112.472532 62.455376 
L 112.581984 62.402709 
L 112.810929 62.292524 
L 112.921385 62.242629 
L 113.153342 62.133137 
L 113.262794 62.069382 
L 113.478685 61.958505 
L 113.586129 61.914846 
L 113.83114 61.803968 
L 113.941596 61.754766 
L 114.250873 61.643888 
L 114.352291 61.594686 
L 114.584249 61.484501 
L 114.692697 61.445001 
L 114.973857 61.334816 
L 115.084313 61.290465 
L 115.318279 61.179587 
L 115.426727 61.140087 
L 115.668726 61.029902 
L 115.778177 60.974463 
L 116.027205 60.863585 
L 116.137661 60.822005 
L 116.39171 60.71182 
L 116.499153 60.669548 
L 116.747177 60.55867 
L 116.853617 60.517091 
L 117.19603 60.406213 
L 117.304478 60.357704 
L 117.604717 60.246826 
L 117.71216 60.208712 
L 118.057586 60.097834 
L 118.16503 60.047939 
L 118.524514 59.937061 
L 118.633966 59.898946 
L 118.921151 59.788068 
L 119.031607 59.75134 
L 119.351929 59.641155 
L 119.461381 59.602348 
L 119.836931 59.492163 
L 119.947387 59.440882 
L 120.293817 59.330004 
L 120.404273 59.29674 
L 120.719575 59.187248 
L 120.719575 59.185862 
L 120.829026 59.158143 
L 121.218635 59.047265 
L 121.329091 59.0043 
L 121.675521 58.893422 
L 121.773927 58.86293 
L 122.173576 58.752745 
L 122.284032 58.729184 
L 122.638496 58.618306 
L 122.741922 58.582963 
L 123.129522 58.472085 
L 123.239978 58.440901 
L 123.704897 58.330023 
L 123.806316 58.296067 
L 124.226049 58.185189 
L 124.336505 58.147767 
L 124.730129 58.037582 
L 124.837573 58.004319 
L 125.233206 57.893441 
L 125.343662 57.860871 
L 125.739295 57.750686 
L 125.849751 57.717422 
L 126.279525 57.606544 
L 126.387973 57.579518 
L 126.793647 57.46864 
L 126.901091 57.439534 
L 127.367014 57.329349 
L 127.47747 57.299551 
L 127.948414 57.188673 
L 128.05887 57.162339 
L 128.531822 57.051461 
L 128.642278 57.017505 
L 129.125272 56.906627 
L 129.234724 56.879601 
L 129.775958 56.768723 
L 129.882397 56.741696 
L 130.37242 56.631511 
L 130.475847 56.601713 
L 131.042185 56.490835 
L 131.152641 56.468659 
L 131.684837 56.357781 
L 131.786256 56.332141 
L 132.314436 56.221956 
L 132.423888 56.196315 
L 132.945039 56.08613 
L 133.052483 56.058411 
L 133.509369 55.948226 
L 133.616812 55.930901 
L 134.21227 55.820023 
L 134.317705 55.79854 
L 134.933246 55.687662 
L 135.038681 55.663408 
L 135.666272 55.553223 
L 135.772711 55.537977 
L 136.473605 55.427792 
L 136.575023 55.404231 
L 137.293991 55.293353 
L 137.398422 55.276721 
L 137.982834 55.165843 
L 138.086261 55.153369 
L 138.703811 55.042491 
L 138.808242 55.027939 
L 139.518172 54.917061 
L 139.628628 54.897657 
L 140.312451 54.786779 
L 140.41889 54.772226 
L 141.200115 54.662041 
L 141.298521 54.644717 
L 142.110874 54.533839 
L 142.219322 54.515821 
L 142.945319 54.404943 
L 143.04975 54.38346 
L 143.055775 54.38346 
L 143.835995 54.273275 
L 143.942435 54.260802 
L 144.771858 54.149924 
L 144.879302 54.134678 
L 145.710734 54.0238 
L 145.818177 54.012712 
L 146.591369 53.902527 
L 146.693792 53.883817 
L 146.700821 53.883817 
L 147.728061 53.772939 
L 147.837513 53.754921 
L 148.587609 53.644043 
L 148.695053 53.630183 
L 149.647986 53.519305 
L 149.756434 53.507524 
L 150.762587 53.397339 
L 150.868022 53.384866 
L 151.807902 53.273988 
L 151.918358 53.258049 
L 152.903424 53.147171 
L 153.011872 53.131925 
L 153.974847 53.021047 
L 154.084299 53.011346 
L 155.225007 52.900468 
L 155.335463 52.887301 
L 156.343625 52.776423 
L 156.44906 52.766028 
L 157.655038 52.65515 
L 157.743403 52.643369 
L 159.030717 52.533184 
L 159.140168 52.520711 
L 160.521872 52.409833 
L 160.627307 52.40221 
L 161.994952 52.291332 
L 162.093359 52.277472 
L 163.397743 52.166594 
L 163.503178 52.161743 
L 164.880865 52.050865 
L 164.972242 52.04047 
L 166.503563 51.930978 
L 166.585903 51.92197 
L 166.588916 51.92197 
L 168.064005 51.811092 
L 168.168436 51.800697 
L 169.583276 51.689819 
L 169.67867 51.681503 
L 171.107568 51.570625 
L 171.209991 51.563002 
L 172.764407 51.452124 
L 172.863817 51.447273 
L 174.593959 51.336395 
L 174.664249 51.328772 
L 176.579154 51.217894 
L 176.687601 51.2075 
L 178.873625 51.096622 
L 178.966006 51.091771 
L 180.959234 50.980893 
L 181.046595 50.976735 
L 183.090029 50.865857 
L 183.198477 50.861006 
L 184.997905 50.750128 
L 185.048112 50.744584 
L 185.054137 50.744584 
L 187.270285 50.633706 
L 187.371704 50.624697 
L 189.880058 50.513819 
L 189.952356 50.509661 
L 192.699697 50.398783 
L 192.750908 50.392547 
L 195.379759 50.281669 
L 195.446033 50.275432 
L 197.888114 50.164554 
L 197.987524 50.160396 
L 200.754947 50.049518 
L 200.864399 50.04536 
L 203.757341 49.934482 
L 203.841689 49.930324 
L 207.791995 49.819446 
L 207.873331 49.817367 
L 211.590675 49.706489 
L 211.680044 49.700945 
L 211.699123 49.700945 
L 215.649429 49.590067 
L 215.691603 49.587988 
L 219.627852 49.47711 
L 219.728266 49.473645 
L 224.540129 49.362767 
L 224.623473 49.357224 
L 224.646568 49.357224 
L 230.213548 49.246346 
L 230.314966 49.243574 
L 235.27243 49.132696 
L 235.378869 49.13131 
L 240.984006 49.020432 
L 241.081408 49.018353 
L 247.117324 48.907475 
L 247.219746 48.904703 
L 253.20445 48.793825 
L 253.20445 48.793132 
L 261.672404 48.682254 
L 261.672404 48.681561 
L 270.230732 48.570683 
L 270.26186 48.569297 
L 278.836254 48.458419 
L 278.877424 48.457033 
L 278.899515 48.457033 
L 290.479315 48.346155 
L 290.570692 48.341997 
L 304.559435 48.231119 
L 304.559435 48.230426 
L 304.636754 48.230426 
L 323.240548 48.119548 
L 323.240548 48.118855 
L 323.279709 48.118855 
L 346.426254 48.007977 
L 346.513615 48.006591 
L 346.533698 48.006591 
L 385.423227 47.895713 
L 385.423227 47.89502 
L 385.52565 47.89502 
L 454.058543 47.784142 
L 454.058543 47.783449 
L 454.099713 47.783449 
L 540.126818 47.724545 
L 540.126818 47.724545 
" clip-path="url(#p87ac417fb5)" style="fill: none; stroke: #1fa187; stroke-width: 2; stroke-linecap: round"/>
   </g>
   <g id="line2d_14">
    <path d="M 81.863182 363.815455 
L 540.126818 47.724545 
" clip-path="url(#p87ac417fb5)" style="fill: none; stroke-dasharray: 7.4,3.2; stroke-dashoffset: 0; stroke: #808080; stroke-width: 2"/>
   </g>
   <g id="patch_3">
    <path d="M 58.95 379.62 
L 58.95 31.92 
" style="fill: none; stroke: #cccccc; stroke-width: 1.25; stroke-linejoin: miter; stroke-linecap: square"/>
   </g>
   <g id="patch_4">
    <path d="M 563.04 379.62 
L 563.04 31.92 
" style="fill: none; stroke: #cccccc; stroke-width: 1.25; stroke-linejoin: miter; stroke-linecap: square"/>
   </g>
   <g id="patch_5">
    <path d="M 58.95 379.62 
L 563.04 379.62 
" style="fill: none; stroke: #cccccc; stroke-width: 1.25; stroke-linejoin: miter; stroke-linecap: square"/>
   </g>
   <g id="patch_6">
    <path d="M 58.95 31.92 
L 563.04 31.92 
" style="fill: none; stroke: #cccccc; stroke-width: 1.25; stroke-linejoin: miter; stroke-linecap: square"/>
   </g>
   <g id="text_15">
    <!-- ROC Curve -->
    <g style="fill: #262626" transform="translate(264.488906 25.92) scale(0.18 -0.18)">
     <defs>
      <path id="ArialMT-4f" d="M 309 2231 
Q 309 3372 921 4017 
Q 1534 4663 2503 4663 
Q 3138 4663 3647 4359 
Q 4156 4056 4423 3514 
Q 4691 2972 4691 2284 
Q 4691 1588 4409 1038 
Q 4128 488 3612 205 
Q 3097 -78 2500 -78 
Q 1853 -78 1343 234 
Q 834 547 571 1087 
Q 309 1628 309 2231 
z
M 934 2222 
Q 934 1394 1379 917 
Q 1825 441 2497 441 
Q 3181 441 3623 922 
Q 4066 1403 4066 2288 
Q 4066 2847 3877 3264 
Q 3688 3681 3323 3911 
Q 2959 4141 2506 4141 
Q 1863 4141 1398 3698 
Q 934 3256 934 2222 
z
" transform="scale(0.015625)"/>
      <path id="ArialMT-43" d="M 3763 1606 
L 4369 1453 
Q 4178 706 3683 314 
Q 3188 -78 2472 -78 
Q 1731 -78 1267 223 
Q 803 525 561 1097 
Q 319 1669 319 2325 
Q 319 3041 592 3573 
Q 866 4106 1370 4382 
Q 1875 4659 2481 4659 
Q 3169 4659 3637 4309 
Q 4106 3959 4291 3325 
L 3694 3184 
Q 3534 3684 3231 3912 
Q 2928 4141 2469 4141 
Q 1941 4141 1586 3887 
Q 1231 3634 1087 3207 
Q 944 2781 944 2328 
Q 944 1744 1114 1308 
Q 1284 872 1643 656 
Q 2003 441 2422 441 
Q 2931 441 3284 734 
Q 3638 1028 3763 1606 
z
" transform="scale(0.015625)"/>
     </defs>
     <use xlink:href="#ArialMT-52"/>
     <use xlink:href="#ArialMT-4f" transform="translate(72.216797 0)"/>
     <use xlink:href="#ArialMT-43" transform="translate(150 0)"/>
     <use xlink:href="#ArialMT-20" transform="translate(222.216797 0)"/>
     <use xlink:href="#ArialMT-43" transform="translate(250 0)"/>
     <use xlink:href="#ArialMT-75" transform="translate(322.216797 0)"/>
     <use xlink:href="#ArialMT-72" transform="translate(377.832031 0)"/>
     <use xlink:href="#ArialMT-76" transform="translate(411.132812 0)"/>
     <use xlink:href="#ArialMT-65" transform="translate(461.132812 0)"/>
    </g>
   </g>
   <g id="legend_1">
    <g id="patch_7">
     <path d="M 353.234687 372.62 
L 553.24 372.62 
Q 556.04 372.62 556.04 369.82 
L 556.04 351.073125 
Q 556.04 348.273125 553.24 348.273125 
L 353.234687 348.273125 
Q 350.434687 348.273125 350.434687 351.073125 
L 350.434687 369.82 
Q 350.434687 372.62 353.234687 372.62 
z
" style="fill: #ffffff; opacity: 0.8; stroke: #cccccc; stroke-linejoin: miter"/>
    </g>
    <g id="line2d_15">
     <path d="M 356.034687 359.173438 
L 370.034687 359.173438 
L 384.034687 359.173438 
" style="fill: none; stroke: #1fa187; stroke-width: 2; stroke-linecap: round"/>
    </g>
    <g id="text_16">
     <!-- ROC curve (AUC = 0.99) -->
     <g style="fill: #262626" transform="translate(395.234687 364.073438) scale(0.14 -0.14)">
      <defs>
       <path id="ArialMT-63" d="M 2588 1216 
L 3141 1144 
Q 3050 572 2676 248 
Q 2303 -75 1759 -75 
Q 1078 -75 664 370 
Q 250 816 250 1647 
Q 250 2184 428 2587 
Q 606 2991 970 3192 
Q 1334 3394 1763 3394 
Q 2303 3394 2647 3120 
Q 2991 2847 3088 2344 
L 2541 2259 
Q 2463 2594 2264 2762 
Q 2066 2931 1784 2931 
Q 1359 2931 1093 2626 
Q 828 2322 828 1663 
Q 828 994 1084 691 
Q 1341 388 1753 388 
Q 2084 388 2306 591 
Q 2528 794 2588 1216 
z
" transform="scale(0.015625)"/>
       <path id="ArialMT-28" d="M 1497 -1347 
Q 1031 -759 709 28 
Q 388 816 388 1659 
Q 388 2403 628 3084 
Q 909 3875 1497 4659 
L 1900 4659 
Q 1522 4009 1400 3731 
Q 1209 3300 1100 2831 
Q 966 2247 966 1656 
Q 966 153 1900 -1347 
L 1497 -1347 
z
" transform="scale(0.015625)"/>
       <path id="ArialMT-41" d="M -9 0 
L 1750 4581 
L 2403 4581 
L 4278 0 
L 3588 0 
L 3053 1388 
L 1138 1388 
L 634 0 
L -9 0 
z
M 1313 1881 
L 2866 1881 
L 2388 3150 
Q 2169 3728 2063 4100 
Q 1975 3659 1816 3225 
L 1313 1881 
z
" transform="scale(0.015625)"/>
       <path id="ArialMT-55" d="M 3500 4581 
L 4106 4581 
L 4106 1934 
Q 4106 1244 3950 837 
Q 3794 431 3386 176 
Q 2978 -78 2316 -78 
Q 1672 -78 1262 144 
Q 853 366 678 786 
Q 503 1206 503 1934 
L 503 4581 
L 1109 4581 
L 1109 1938 
Q 1109 1341 1220 1058 
Q 1331 775 1601 622 
Q 1872 469 2263 469 
Q 2931 469 3215 772 
Q 3500 1075 3500 1938 
L 3500 4581 
z
" transform="scale(0.015625)"/>
       <path id="ArialMT-3d" d="M 3381 2694 
L 356 2694 
L 356 3219 
L 3381 3219 
L 3381 2694 
z
M 3381 1303 
L 356 1303 
L 356 1828 
L 3381 1828 
L 3381 1303 
z
" transform="scale(0.015625)"/>
       <path id="ArialMT-39" d="M 350 1059 
L 891 1109 
Q 959 728 1153 556 
Q 1347 384 1650 384 
Q 1909 384 2104 503 
Q 2300 622 2425 820 
Q 2550 1019 2634 1356 
Q 2719 1694 2719 2044 
Q 2719 2081 2716 2156 
Q 2547 1888 2255 1720 
Q 1963 1553 1622 1553 
Q 1053 1553 659 1965 
Q 266 2378 266 3053 
Q 266 3750 677 4175 
Q 1088 4600 1706 4600 
Q 2153 4600 2523 4359 
Q 2894 4119 3086 3673 
Q 3278 3228 3278 2384 
Q 3278 1506 3087 986 
Q 2897 466 2520 194 
Q 2144 -78 1638 -78 
Q 1100 -78 759 220 
Q 419 519 350 1059 
z
M 2653 3081 
Q 2653 3566 2395 3850 
Q 2138 4134 1775 4134 
Q 1400 4134 1122 3828 
Q 844 3522 844 3034 
Q 844 2597 1108 2323 
Q 1372 2050 1759 2050 
Q 2150 2050 2401 2323 
Q 2653 2597 2653 3081 
z
" transform="scale(0.015625)"/>
       <path id="ArialMT-29" d="M 791 -1347 
L 388 -1347 
Q 1322 153 1322 1656 
Q 1322 2244 1188 2822 
Q 1081 3291 891 3722 
Q 769 4003 388 4659 
L 791 4659 
Q 1378 3875 1659 3084 
Q 1900 2403 1900 1659 
Q 1900 816 1576 28 
Q 1253 -759 791 -1347 
z
" transform="scale(0.015625)"/>
      </defs>
      <use xlink:href="#ArialMT-52"/>
      <use xlink:href="#ArialMT-4f" transform="translate(72.216797 0)"/>
      <use xlink:href="#ArialMT-43" transform="translate(150 0)"/>
      <use xlink:href="#ArialMT-20" transform="translate(222.216797 0)"/>
      <use xlink:href="#ArialMT-63" transform="translate(250 0)"/>
      <use xlink:href="#ArialMT-75" transform="translate(300 0)"/>
      <use xlink:href="#ArialMT-72" transform="translate(355.615234 0)"/>
      <use xlink:href="#ArialMT-76" transform="translate(388.916016 0)"/>
      <use xlink:href="#ArialMT-65" transform="translate(438.916016 0)"/>
      <use xlink:href="#ArialMT-20" transform="translate(494.53125 0)"/>
      <use xlink:href="#ArialMT-28" transform="translate(522.314453 0)"/>
      <use xlink:href="#ArialMT-41" transform="translate(555.615234 0)"/>
      <use xlink:href="#ArialMT-55" transform="translate(622.314453 0)"/>
      <use xlink:href="#ArialMT-43" transform="translate(694.53125 0)"/>
      <use xlink:href="#ArialMT-20" transform="translate(766.748047 0)"/>
      <use xlink:href="#ArialMT-3d" transform="translate(794.53125 0)"/>
      <use xlink:href="#ArialMT-20" transform="translate(852.929688 0)"/>
      <use xlink:href="#ArialMT-30" transform="translate(880.712891 0)"/>
      <use xlink:href="#ArialMT-2e" transform="translate(936.328125 0)"/>
      <use xlink:href="#ArialMT-39" transform="translate(964.111328 0)"/>
      <use xlink:href="#ArialMT-39" transform="translate(1019.726562 0)"/>
      <use xlink:href="#ArialMT-29" transform="translate(1075.341797 0)"/>
     </g>
    </g>
   </g>
  </g>
 </g>
 <defs>
  <clipPath id="p87ac417fb5">
   <rect x="58.95" y="31.92" width="504.09" height="347.7"/>
  </clipPath>
 </defs>
</svg>
